<svg width="200" height="354" viewBox="0 0 200 354" fill="none" xmlns="http://www.w3.org/2000/svg">
<g clip-path="url(#clip0_3_79)">
<path opacity="0.6" d="M153.326 3.15753H46.674C22.643 3.15753 3.16211 22.6104 3.16211 46.6068V307.393C3.16211 331.39 22.643 350.842 46.674 350.842H153.326C177.357 350.842 196.838 331.39 196.838 307.393V46.6068C196.838 22.6104 177.357 3.15753 153.326 3.15753Z" fill="#EBDC83" stroke="#BFA300" stroke-width="8" stroke-miterlimit="10"/>
<path d="M63.6522 347.762C85.4724 281.831 73.5257 192.667 32.4724 136.383C30.2174 133.292 30.9328 128.481 33.9901 126.16C37.0494 123.839 41.9388 124.394 44.3854 127.34C54.5 139.528 64.6146 151.718 74.7312 163.906C68.6858 144.298 62.6384 124.688 56.5929 105.08C55.4901 101.502 57.6739 97.2532 61.251 96.0237C64.8281 94.7923 69.2135 96.7796 70.6008 100.261C77.9407 118.675 85.2807 137.091 92.6206 155.505C90.7451 135.518 86.1996 107.62 84.3241 87.6327C84.002 84.2048 85.9605 79.4843 90.836 78.397C95.2688 77.4083 99.0692 81.6295 99.8814 84.9764C104.52 104.093 110 131.54 114.638 150.657C116.198 132.189 119.986 112.431 124.427 94.4253C126.941 84.2324 138.344 87.8537 138.767 95.5876C140.249 122.717 139.342 152.482 140.824 179.609C143.113 172.506 149.298 165.351 154.109 159.604C158.917 153.859 162.99 146.489 170.267 148.466C177.545 150.441 179.488 159.582 176.069 166.227C150.206 216.5 128.917 283.562 134.919 344.668C134.885 344.563 135.287 348.318 135.251 348.214" fill="#F6A46A"/>
<path d="M140.425 177.768C126.36 187.228 111.33 197.542 104.676 213.826C102.86 218.273 101.783 222.924 101.557 227.723C101.53 228.313 101.743 229.673 102.546 229.697C103.348 229.72 103.51 228.24 103.534 227.723C104.297 211.517 116.98 198.81 129.237 189.719C133.057 186.885 137.004 184.227 140.951 181.572C141.674 181.085 141.751 179.929 141.64 179.145C141.581 178.719 141.15 177.278 140.425 177.768Z" fill="#8F4B1B"/>
<path d="M67.8004 174.148C80.8122 162.667 97.5988 155.582 114.854 153.897C119.688 153.425 124.555 153.384 129.397 153.763C130.713 153.865 130.814 149.926 129.397 149.816C111.787 148.432 93.7885 152.798 78.7016 161.958C74.4782 164.522 70.5079 167.472 66.8063 170.74C65.8774 171.561 66.4348 175.356 67.8043 174.148H67.8004Z" fill="#8F4B1B"/>
<path d="M54.6107 56.7404C54.1423 56.7404 53.9091 56.9456 53.9091 57.3541V63.3455C53.9091 64.054 53.5039 64.4092 52.6937 64.4092H48.8419C48.0316 64.4092 47.6265 64.0559 47.6265 63.3455V42.7961C47.6265 41.8883 48.1462 41.4324 49.1838 41.4324H60.328C62.1205 41.4324 63.7292 41.8764 65.1561 42.7645L65.6363 43.0644C67.0751 43.9624 67.7925 45.1859 67.7925 46.7331V50.7017C67.7925 52.239 67.1759 53.5671 65.9427 54.686L65.498 55.0906C64.2648 56.2095 62.7767 56.768 61.0296 56.768H60.996L54.6107 56.7384V56.7404ZM60.7747 49.1762C60.7747 48.3473 60.33 47.854 59.4387 47.6941L55.2273 46.96C55.1363 46.9403 55.0553 46.9304 54.9881 46.9304C54.7035 46.9304 54.5593 47.0903 54.5593 47.41V47.4396L54.6443 51.7377C54.6561 52.1364 54.8162 52.3376 55.1245 52.3376C55.2035 52.3376 55.3004 52.3219 55.415 52.2923L59.4209 51.3193C60.3221 51.1003 60.7727 50.5911 60.7727 49.7919V49.1782L60.7747 49.1762Z" fill="#796605"/>
<path d="M88.9012 62.9706C88.9703 63.1798 89.0039 63.3692 89.0039 63.5389C89.0039 64.1171 88.6047 64.4072 87.8063 64.4072H82.5514C82.0494 64.4072 81.6719 64.1921 81.4209 63.7639L80.1027 61.4865L73.581 60.6636L72.2628 63.5843C72.0118 64.1329 71.5434 64.4072 70.8597 64.4072H66.494C65.7984 64.4072 65.4506 64.1527 65.4506 63.6435C65.4506 63.4442 65.5019 63.2034 65.6047 62.9252L73.6857 40.8049C73.9031 40.2267 74.3537 39.9366 75.0375 39.9366H80.9268C81.6225 39.9366 82.0632 40.2365 82.245 40.8345L88.9051 62.9706H88.9012ZM79.0929 56.2155L77.3636 51.4378C77.2608 51.1477 77.0494 51.0036 76.7292 51.0036C76.3755 51.0036 76.1403 51.1674 76.0276 51.497L74.3834 56.0359C74.3498 56.1365 74.332 56.2253 74.332 56.3063C74.332 56.6161 74.5593 56.7917 75.0178 56.8312L77.8933 57.0858C77.996 57.0956 78.0988 57.1016 78.2016 57.1016C78.8182 57.1016 79.1265 56.9022 79.1265 56.5016C79.1265 56.4109 79.1146 56.3161 79.0929 56.2175V56.2155Z" fill="#796605"/>
<path d="M109.411 49.7307C109.411 51.2976 108.846 52.6712 107.715 53.8493L106.621 54.988C105.478 56.176 104.024 56.77 102.255 56.77H98.6778C98.2095 56.77 97.9763 56.9752 97.9763 57.3837V63.3455C97.9763 64.054 97.5711 64.4092 96.7608 64.4092H91.8636C91.0533 64.4092 90.6482 64.0559 90.6482 63.3455V41.0002C90.6482 40.1911 91.1106 39.7866 92.0355 39.7866H102.856C104.67 39.7866 106.2 40.3154 107.445 41.3732C108.757 42.4823 109.413 43.8144 109.413 45.3714V49.7288L109.411 49.7307ZM102.204 46.4509C102.204 45.5431 101.684 45.0872 100.646 45.0872H98.7114C98.2431 45.0872 98.0099 45.2925 98.0099 45.701V51.7062C98.0099 52.1048 98.1581 52.3061 98.4545 52.3061C98.5691 52.3061 98.6996 52.2824 98.8478 52.2311L100.919 51.4832C101.775 51.1733 102.204 50.6287 102.204 49.8511V46.4509Z" fill="#796605"/>
<path d="M124.237 59.1973C125.047 59.1973 125.453 59.5526 125.453 60.261V63.3455C125.453 64.054 125.047 64.4092 124.237 64.4092H113.211C112.31 64.4092 111.848 64.0046 111.824 63.1955L111.362 41.7028V41.6574C111.362 40.8779 111.824 40.4891 112.749 40.4891H124.237C125.047 40.4891 125.453 40.8443 125.453 41.5528V46.81C125.453 47.5185 124.876 47.8737 123.723 47.8737H119.17C118.36 47.8737 117.955 48.2289 117.955 48.9374V50.1057C117.955 50.9148 118.417 51.3194 119.342 51.3194H123.381C123.85 51.3194 124.083 51.5187 124.083 51.9193V54.465C124.083 54.8143 123.889 55.0196 123.5 55.0788L118.638 55.7833C118.022 55.8741 117.713 56.1938 117.713 56.7424V58.2856C117.713 58.8954 118.061 59.1993 118.757 59.1993H124.235L124.237 59.1973Z" fill="#796605"/>
<path d="M132.968 40.8048C133.767 40.8048 134.172 41.1936 134.184 41.9731L134.441 56.5608H140.279C141.204 56.5608 141.666 56.9654 141.666 57.7745V63.1955C141.666 64.0046 141.204 64.4092 140.279 64.4092H129.099C128.174 64.4092 127.711 64.0145 127.711 63.2251V63.1659L128.328 41.9731C128.352 41.1936 128.761 40.8048 129.561 40.8048H132.968Z" fill="#796605"/>
</g>
<defs>
<clipPath id="clip0_3_79">
<rect width="200" height="354" fill="white"/>
</clipPath>
</defs>
</svg>
