<svg width="201" height="354" viewBox="0 0 201 354" fill="none" xmlns="http://www.w3.org/2000/svg">
<g clip-path="url(#clip0_14_2)">
<path opacity="0.6" d="M154.058 3.15747H46.8966C22.751 3.15747 3.17715 22.6104 3.17715 46.6068V307.394C3.17715 331.39 22.751 350.843 46.8966 350.843H154.058C178.203 350.843 197.777 331.39 197.777 307.394V46.6068C197.777 22.6104 178.203 3.15747 154.058 3.15747Z" fill="#85C0CF" stroke="#359DB5" stroke-width="8" stroke-miterlimit="10"/>
<path d="M46.8252 349.323L70.7451 191.981C71.0569 189.928 70.765 187.83 69.9052 185.938L52.0198 146.641C50.7073 143.758 50.7391 140.444 52.1072 137.587L63.2173 114.361C64.4901 111.701 66.8035 109.676 69.6173 108.758L126.677 90.1351C131.167 88.6708 136.091 90.2673 138.847 94.08C142.295 98.8479 146.882 105.313 149.842 109.962C151.701 112.881 154.848 114.73 158.317 114.949C165.361 115.393 172.166 120.38 175.178 126.934C178.977 135.201 177.678 145.06 173.923 153.348C170.17 161.637 164.199 168.698 158.426 175.747C153.274 182.04 148.15 188.539 144.866 195.93C144.133 197.579 143.827 199.385 143.978 201.183L156.475 349.894L46.8272 349.321L46.8252 349.323Z" fill="#F6A46A"/>
<path d="M156.186 113.779C150.801 113.779 145.428 114.436 140.211 115.77C135.622 116.942 130.68 118.418 126.708 121.071C122.906 123.611 120.771 127.688 121.486 132.28C122.131 136.416 124.891 140.152 128.629 142.076C133.633 144.653 139.574 144.251 145.007 143.854C146.419 143.751 146.345 139.811 145.007 139.907C140.575 140.231 135.876 140.608 131.571 139.248C128.118 138.157 124.82 135.729 123.642 132.191C122.523 128.824 125.152 126.131 127.86 124.479C131.587 122.207 136.002 120.794 140.209 119.717C145.424 118.381 150.801 117.728 156.184 117.726C157.562 117.726 157.572 113.779 156.184 113.779H156.186Z" fill="#965120"/>
<path d="M144.745 139.978C129.955 145.044 118.047 157.001 112.687 171.557C111.174 175.666 110.223 179.996 109.89 184.359C109.836 185.054 109.792 186.425 110.583 186.786C111.373 187.147 111.764 185.94 111.804 185.409C112.918 170.803 121.651 157.445 133.817 149.409C137.378 147.057 141.23 145.168 145.271 143.783C146.48 143.369 146.222 139.471 144.743 139.976L144.745 139.978Z" fill="#965120"/>
<path d="M56.3189 145.62C57.1032 155.667 66.1382 162.864 75.9735 163.034C82.0458 163.139 87.9533 161.134 93.563 159.028C99.7088 156.721 105.829 154.343 111.961 151.997C118.871 149.354 125.781 146.71 132.691 144.067C133.899 143.605 133.607 139.71 132.163 140.26C120.44 144.744 108.718 149.228 96.9943 153.711C87.2464 157.439 75.5406 162.3 65.7391 156.115C61.6624 153.544 58.6144 149.433 58.2351 144.568C58.1894 143.994 57.7804 142.869 57.0139 143.191C56.2474 143.513 56.2712 144.983 56.3209 145.618L56.3189 145.62Z" fill="#965120"/>
<path d="M65.894 113.949C69.7642 121.021 71.0827 129.059 73.4 136.691C75.5625 143.811 78.68 151.32 85.0581 155.701C88.144 157.82 91.9605 158.992 95.6936 158.209C97.1293 157.907 96.9049 154.007 95.6936 154.262C88.7675 155.716 82.6634 150.589 79.385 145.001C75.5049 138.388 74.091 130.717 72.0259 123.435C70.8305 119.214 69.4107 115.022 67.2979 111.158C66.9127 110.456 66.2792 110.458 65.894 111.158C65.477 111.916 65.477 113.187 65.894 113.949Z" fill="#965120"/>
<path d="M86.2853 106.631C89.665 114.57 93.1876 122.448 96.8612 130.259C98.6801 134.127 100.537 137.979 102.429 141.813C103.305 143.588 104.133 145.409 105.175 147.096C106.013 148.448 107.09 150.051 108.563 150.791C109.949 151.487 111.694 151.454 113.198 151.308C115.291 151.106 117.356 150.566 119.328 149.847C120.537 149.407 120.259 145.51 118.799 146.041C117.135 146.646 115.418 147.096 113.656 147.31C112.318 147.471 110.757 147.604 109.463 147.14C108.098 146.652 107.121 145.208 106.411 144.024C105.414 142.362 104.604 140.584 103.75 138.847C100.136 131.516 96.6527 124.122 93.3028 116.668C91.3886 112.409 89.52 108.131 87.6912 103.837C87.3655 103.071 86.6427 103.189 86.2873 103.837C85.8365 104.658 85.9338 105.796 86.2873 106.627L86.2853 106.631Z" fill="#965120"/>
<path d="M107.431 99.7239C112.395 110.349 117.36 120.976 122.324 131.601C122.672 132.345 123.363 132.266 123.728 131.601C124.167 130.802 124.105 129.618 123.728 128.81C118.764 118.185 113.799 107.558 108.835 96.9335C108.488 96.1895 107.797 96.2684 107.431 96.9335C106.992 97.7327 107.054 98.9168 107.431 99.7239Z" fill="#965120"/>
<path d="M132.995 146.4C134.024 146.269 135.054 146.137 136.083 146.007C136.899 145.902 137.09 144.687 137.076 144.034C137.066 143.562 136.895 141.958 136.083 142.06C135.054 142.19 134.024 142.323 132.995 142.453C132.179 142.557 131.989 143.773 132.002 144.426C132.012 144.898 132.183 146.502 132.995 146.4Z" fill="#965120"/>
<path d="M70.9218 47.4118C70.9218 48.9787 70.3539 50.3523 69.218 51.5304L68.118 52.6691C66.9702 53.8571 65.5087 54.4511 63.7315 54.4511H60.1374C59.6668 54.4511 59.4324 54.6563 59.4324 55.0648V61.0266C59.4324 61.7351 59.0254 62.0903 58.2112 62.0903H53.2906C52.4765 62.0903 52.0694 61.737 52.0694 61.0266V38.6813C52.0694 37.8722 52.5341 37.4677 53.4634 37.4677H64.3352C66.1581 37.4677 67.695 37.9965 68.946 39.0543C70.2645 40.1634 70.9238 41.4954 70.9238 43.0525V47.4099L70.9218 47.4118ZM63.6799 44.132C63.6799 43.2242 63.1576 42.7683 62.1151 42.7683H60.1711C59.7005 42.7683 59.4662 42.9736 59.4662 43.3821V49.3872C59.4662 49.7859 59.6151 49.9872 59.913 49.9872C60.0282 49.9872 60.1592 49.9635 60.3081 49.9122L62.3892 49.1642C63.249 48.8544 63.6799 48.3097 63.6799 47.5322V44.132Z" fill="#235D6B"/>
<path d="M85.8186 56.8785C86.6328 56.8785 87.0398 57.2337 87.0398 57.9422V61.0267C87.0398 61.7351 86.6328 62.0903 85.8186 62.0903H74.7403C73.8348 62.0903 73.3702 61.6858 73.3463 60.8767L72.8817 39.384V39.3386C72.8817 38.5591 73.3463 38.1703 74.2757 38.1703H85.8186C86.6328 38.1703 87.0398 38.5255 87.0398 39.234V44.4912C87.0398 45.1997 86.46 45.5549 85.3023 45.5549H80.7273C79.9131 45.5549 79.506 45.9101 79.506 46.6186V47.7869C79.506 48.596 79.9707 49.0005 80.9 49.0005H84.9588C85.4294 49.0005 85.6637 49.1998 85.6637 49.6004V52.1462C85.6637 52.4955 85.4691 52.7007 85.078 52.7599L80.1931 53.4644C79.5736 53.5552 79.2638 53.8749 79.2638 54.4235V55.9668C79.2638 56.5766 79.6133 56.8805 80.3122 56.8805H85.8166L85.8186 56.8785Z" fill="#235D6B"/>
<path d="M108.936 54.2717C108.936 55.8189 108.305 57.1431 107.044 58.2403L104.325 60.6065C103.122 61.6544 101.75 62.1793 100.215 62.1793C100.066 62.1793 99.9172 62.1734 99.7683 62.1635L90.7035 61.5794C89.798 61.5202 89.3453 61.0998 89.3453 60.3203V38.7684C89.3453 37.9592 89.8099 37.5547 90.7392 37.5547H100.596C102.374 37.5547 103.893 38.1033 105.156 39.2025L107.048 40.8503C108.309 41.9495 108.94 43.2678 108.94 44.8051V54.2697L108.936 54.2717ZM100.868 54.5263V45.1051C100.868 44.367 100.507 43.9427 99.7842 43.8322L97.6158 43.5026C97.5463 43.4928 97.4787 43.4869 97.4092 43.4869C96.9962 43.4869 96.7837 43.696 96.7718 44.1164L96.4283 55.9787V56.0083C96.4283 56.4188 96.6527 56.6221 97.0995 56.6221C97.1908 56.6221 97.2722 56.6122 97.3397 56.5925L99.8338 55.8584C100.521 55.659 100.866 55.215 100.866 54.5263H100.868Z" fill="#235D6B"/>
<path d="M132.382 64.5177C132.427 64.5966 132.451 64.6874 132.451 64.788C132.451 65.1966 132.217 65.4018 131.746 65.4018H126.861C126.621 65.4018 126.431 65.311 126.294 65.1314L117.83 53.9578L117.193 60.8471C117.124 61.6365 116.649 62.0312 115.765 62.0312H112.703C111.774 62.0312 111.309 61.6266 111.309 60.8175V39.0406C111.309 38.2315 111.774 37.8269 112.703 37.8269H123.351C125.128 37.8269 126.619 38.3065 127.823 39.2655C129.05 40.2542 129.663 41.5172 129.663 43.0545V47.5619C129.663 49.0992 129.038 50.4273 127.789 51.5463L125.672 53.4329L132.38 64.5157L132.382 64.5177ZM122.131 46.589C122.131 45.8904 121.707 45.4503 120.859 45.2707L119.346 44.9412C119.254 44.9214 119.133 44.9116 118.984 44.9116C118.559 44.9116 118.337 45.1267 118.313 45.5549L118.14 49.5097V49.5551C118.14 49.9537 118.365 50.155 118.811 50.155C119.018 50.155 119.195 50.0859 119.346 49.9458L121.238 48.1776C121.834 47.6191 122.131 47.0902 122.131 46.591V46.589Z" fill="#235D6B"/>
<path d="M155.623 60.6519C155.692 60.8611 155.726 61.0506 155.726 61.2203C155.726 61.7985 155.325 62.0886 154.522 62.0886H149.242C148.738 62.0886 148.359 61.8735 148.107 61.4453L146.782 59.1679L140.229 58.345L138.905 61.2657C138.653 61.8143 138.182 62.0886 137.495 62.0886H133.109C132.41 62.0886 132.06 61.834 132.06 61.3249C132.06 61.1256 132.112 60.8848 132.215 60.6066L140.335 38.4862C140.553 37.908 141.006 37.6179 141.693 37.6179H147.61C148.309 37.6179 148.752 37.9179 148.935 38.5158L155.627 60.6519H155.623ZM145.765 53.8988L144.028 49.1211C143.925 48.831 143.712 48.687 143.391 48.687C143.035 48.687 142.801 48.8508 142.686 49.1803L141.034 53.7192C141 53.8199 140.982 53.9087 140.982 53.9896C140.982 54.2994 141.212 54.4751 141.671 54.5145L144.56 54.7691C144.663 54.779 144.767 54.7849 144.87 54.7849C145.489 54.7849 145.799 54.5856 145.799 54.185C145.799 54.0942 145.787 53.9995 145.765 53.9008V53.8988Z" fill="#235D6B"/>
</g>
<defs>
<clipPath id="clip0_14_2">
<rect width="200.954" height="354" fill="white"/>
</clipPath>
</defs>
</svg>
