<svg width="338" height="62" viewBox="0 0 338 62" fill="none" xmlns="http://www.w3.org/2000/svg">
<path d="M22.7432 2.5H315.257C326.207 2.50006 335.5 12.3949 335.5 25.1396V36.8604C335.5 49.6051 326.207 59.4999 315.257 59.5H22.7432C11.7929 59.4999 2.5 49.6051 2.5 36.8604V25.1396C2.5 12.3949 11.7929 2.50007 22.7432 2.5Z" fill="white" stroke="#8CBD58" stroke-width="5"/>
<path d="M50.311 39.1799L49 22.292L59.8329 21L60.1319 24.9913L53.807 25.7296L54.037 28.0828L58.9819 27.7137L59.3499 31.3819L54.497 31.7972L54.842 34.2889L61.0519 33.666L61.3739 39.3414L50.311 39.1799Z" fill="#8CBD58"/>
<path d="M198 31.2976C198 26.3143 201.611 22 206.372 22C211.133 22 214.79 26.1297 214.79 31.2284C214.79 36.3271 211.087 40.3876 206.303 40.3876C201.519 40.3876 198 36.2117 198 31.2976ZM209.661 31.5745C209.661 29.4289 208.419 27.6062 206.487 27.6062C204.417 27.6062 202.968 29.4981 202.968 31.6437C202.968 33.7893 204.049 35.5657 206.418 35.5657C208.488 35.5657 209.661 33.697 209.661 31.5745Z" fill="#8CBD58"/>
<path d="M73.3389 39.4106L67.29 29.9977L68.6469 39.2261L62.368 39.9413L62 21.5076L65.887 21.646L70.9239 28.5442L69.8889 21L75.5469 21.646L76.1909 39.1338L73.3389 39.4106Z" fill="#8CBD58"/>
<path d="M87.6949 39.88C87.0279 39.9723 86.3839 39.9954 85.7859 39.9954C79.714 39.9954 77 35.9349 77 31.6667C77 26.9603 80.289 22 85.9929 22C86.4069 22 86.8209 22.0231 87.2349 22.0692L87.6949 27.9523C84.3369 27.9523 82.52 29.5904 82.52 31.4822C82.52 33.051 84.1759 33.6739 85.7399 33.6739C86.4759 33.6739 87.1889 33.5355 87.7179 33.3048L87.6949 39.88Z" fill="#8CBD58"/>
<path d="M89 31.2976C89 26.3143 92.611 22 97.3719 22C102.133 22 105.79 26.1297 105.79 31.2284C105.79 36.3271 102.087 40.3876 97.3029 40.3876C92.519 40.3876 89 36.2117 89 31.2976ZM100.661 31.5745C100.661 29.4289 99.4189 27.6062 97.4869 27.6062C95.4169 27.6062 93.968 29.4981 93.968 31.6437C93.968 33.7893 95.0489 35.5657 97.4179 35.5657C99.4879 35.5657 100.661 33.697 100.661 31.5745Z" fill="#8CBD58"/>
<path d="M118.339 39.4106L112.29 29.9977L113.647 39.2261L107.368 39.9413L107 21.5076L110.887 21.646L115.924 28.5442L114.889 21L120.547 21.646L121.191 39.1338L118.339 39.4106Z" fill="#8CBD58"/>
<path d="M178.339 40.4106L172.29 30.9977L173.647 40.2261L167.368 40.9413L167 22.5076L170.887 22.646L175.924 29.5442L174.889 22L180.547 22.646L181.191 40.1338L178.339 40.4106Z" fill="#8CBD58"/>
<path d="M196.997 34.5592C196.997 35.7216 196.546 36.7164 195.645 37.5407L193.703 39.3184C192.843 40.1056 191.863 40.5 190.766 40.5C190.66 40.5 190.553 40.4956 190.447 40.4881L183.97 40.0493C183.323 40.0048 183 39.689 183 39.1034V22.9118C183 22.3039 183.332 22 183.996 22H191.039C192.308 22 193.394 22.4122 194.296 23.238L195.648 24.476C196.549 25.3018 197 26.2922 197 27.4471V34.5577L196.997 34.5592ZM191.233 34.7504V27.6725C191.233 27.118 190.975 26.7992 190.458 26.7162L188.909 26.4686C188.859 26.4612 188.811 26.4567 188.761 26.4567C188.466 26.4567 188.315 26.6139 188.306 26.9297L188.061 35.8416V35.8639C188.061 36.1723 188.221 36.325 188.54 36.325C188.605 36.325 188.664 36.3176 188.712 36.3027L190.494 35.7512C190.985 35.6015 191.231 35.2679 191.231 34.7504H191.233Z" fill="#8CBD58"/>
<path d="M126.094 39.6493L126.209 27.0064L122.46 27.0987L122 22.8306L135.317 22L135.34 26.6142L131.683 26.7757L130.924 40.1338L126.094 39.6493Z" fill="#8CBD58"/>
<path d="M144.556 39.88L141.911 33.6278L140.531 33.8123L140.853 39.9262H136L136.046 22.5076C137.242 22.1615 139.289 22 140.692 22C146.488 22 149.363 24.8147 149.363 27.6985C149.363 29.5904 148.144 31.5052 145.706 32.6819L149.363 39.1417L144.556 39.88ZM140.393 30.6055C142.739 30.5824 143.935 29.4058 143.935 28.2522C143.935 27.214 142.946 26.1989 140.945 26.1989C140.692 26.1989 140.416 26.1989 140.163 26.2451L140.393 30.6055Z" fill="#8CBD58"/>
<path d="M161.569 40.3876L160.511 36.8577L155.957 37.1807L155.198 40.6644L150 39.6724L155.497 22L160.396 22.1615L166.606 38.9341L161.569 40.3876ZM157.912 28.183L156.601 33.7893L159.545 33.6047L157.912 28.183Z" fill="#8CBD58"/>
<path d="M230.346 34.8044C231.565 35.8657 232.876 36.304 234.003 36.304C235.751 36.304 237.131 35.4735 237.131 34.2045C237.131 31.9897 228.391 33.9508 228.391 27.86C228.391 23.6611 233.497 22.0231 237.085 22.0231C238.557 22.0231 240.098 22.2769 241.57 22.8767L239.983 26.9603C238.925 26.3373 237.752 26.0836 236.717 26.0836C234.969 26.0836 233.543 26.8218 233.543 27.9062C233.543 30.2363 242.697 27.8139 242.697 34.7121C242.697 38.0574 238.879 40.3645 234.808 40.3645C232.37 40.3645 229.84 39.5339 228 37.596L230.346 34.8044Z" fill="#8CBD58"/>
<path d="M254.266 40.3876L253.208 36.8577L248.654 37.1807L247.895 40.6644L242.697 39.6724L248.194 22L253.093 22.1615L259.303 38.9341L254.266 40.3876ZM250.609 28.183L249.298 33.7893L252.242 33.6047L250.609 28.183Z" fill="#8CBD58"/>
<path d="M261.005 40.3645L260.154 22.3922L265.398 22.2076L265.26 34.8275L271.608 34.02L271.746 39.6032L261.005 40.3645Z" fill="#8CBD58"/>
<path d="M283.545 40.3876L282.487 36.8577L277.933 37.1807L277.174 40.6644L271.976 39.6724L277.473 22L282.372 22.1615L288.582 38.9341L283.545 40.3876ZM279.888 28.183L278.577 33.7893L281.521 33.6047L279.888 28.183Z" fill="#8CBD58"/>
</svg>
