<svg width="200" height="354" viewBox="0 0 200 354" fill="none" xmlns="http://www.w3.org/2000/svg">
<g clip-path="url(#clip0_1_93)">
<path opacity="0.6" d="M153.326 3.15753H46.674C22.643 3.15753 3.16211 22.6104 3.16211 46.6068V307.393C3.16211 331.39 22.643 350.842 46.674 350.842H153.326C177.357 350.842 196.838 331.39 196.838 307.393V46.6068C196.838 22.6104 177.357 3.15753 153.326 3.15753Z" fill="#EDA8B2" stroke="#8F1A2B" stroke-width="8" stroke-miterlimit="10"/>
<path d="M63.1542 347.912C63.1542 347.912 72.9605 244.253 73.1344 243.783C60.9308 232.921 53.7253 216.7 55.9822 203.014C55.3577 202.272 54.7312 201.53 54.1067 200.788C44.5692 199.474 37.1008 190.475 36.4289 180.909C35.7569 171.344 41.2036 161.883 49.2056 156.508C57.2075 151.132 67.3913 149.565 78.504 151.164C75.1759 131.269 71.8478 111.375 68.5198 91.4789C67.7075 86.6203 71.2135 81.4203 76.0435 80.3191C80.8735 79.2179 86.2688 82.3912 87.6206 87.1275C93.9427 109.27 100.267 131.412 106.749 153.707C113.955 133.176 123.903 113.589 136.249 95.6291C138.957 91.6901 144.733 90.2159 148.986 92.3768C153.239 94.5378 155.411 100.052 153.775 104.535C145.433 127.382 137.091 150.226 129.65 172.08C131.806 189.397 130.711 207.125 128.198 224.347C133.864 265.458 139.53 306.57 145.196 347.681" fill="#F6A46A"/>
<path d="M118.395 170.04C107.352 166.049 95.7846 163.592 84.0673 162.777C82.7431 162.685 82.6522 166.626 84.0673 166.724C95.6088 167.526 106.99 169.913 117.87 173.844C119.316 174.367 119.611 170.478 118.395 170.038V170.04Z" fill="#965120"/>
<path d="M112.528 196.04C106.103 197.8 99.2648 195.495 93.8933 191.939C88.1561 188.144 83.7648 182.849 78.579 178.409C76.2767 176.436 73.6146 174.618 70.5079 174.308C68.0395 174.064 65.2925 174.989 63.6443 176.878C61.3972 179.453 61.7312 183.21 63.1423 186.098C63.9684 187.787 65.0415 189.373 66.0118 190.982C66.9822 192.59 67.9664 194.22 68.9446 195.84C73.4288 203.269 77.9111 210.695 82.3952 218.123L82.5948 215.022C76.8083 221.777 73.6719 230.53 73.7747 239.414C73.7826 240.006 73.9367 241.364 74.7628 241.388C75.5889 241.411 75.7569 239.931 75.751 239.414C75.6601 231.704 78.5929 224.266 83.5929 218.43C84.2095 217.712 84.2747 216.129 83.7925 215.33C80.0178 209.076 76.2411 202.821 72.4664 196.567C70.6126 193.496 68.7589 190.423 66.9051 187.353C66.0158 185.879 64.9862 184.414 64.3182 182.822C63.8814 181.78 63.8952 181.142 64.6423 180.284C66.1976 178.496 68.9269 177.933 71.1798 178.352C74.1917 178.912 76.7312 180.982 78.915 183.007C83.6245 187.37 87.9822 192.176 93.3696 195.744C99.1205 199.553 106.241 201.711 113.055 199.845C114.253 199.517 114.061 195.619 112.53 196.038L112.528 196.04Z" fill="#965120"/>
<path d="M76.0039 176.597C76.3656 170.965 78.5988 165.509 82.0454 161.066C82.6067 160.344 82.6561 159.217 82.3992 158.367C82.2371 157.83 81.6166 156.926 81.0474 157.658C76.7984 163.135 74.4703 169.708 74.0276 176.597C73.9901 177.187 74.2213 178.547 75.0158 178.571C75.8518 178.595 75.9703 177.114 76.0039 176.597Z" fill="#965120"/>
<path d="M39.7589 63.3752C39.7134 64.0639 39.3023 64.4093 38.5257 64.4093H35.1699C34.3597 64.4093 33.9486 64.056 33.9367 63.3456L33.6462 49.8058C33.6344 49.3973 33.4012 49.1921 32.9446 49.1921H29.8794C28.9545 49.1921 28.4921 48.7875 28.4921 47.9784V41.7936C28.4921 41.0042 28.9427 40.5898 29.8438 40.5504L45.9545 39.907H46.0237C46.4684 39.907 46.6917 40.1123 46.6917 40.5208V48.6375C46.6917 49.048 46.4624 49.2513 46.0079 49.2513H45.9901L41.2826 49.2217H41.2648C40.83 49.2217 40.6027 49.417 40.581 49.8058L39.7589 63.3752Z" fill="#8F1A2B"/>
<path d="M61.9467 59.1973C62.7569 59.1973 63.1621 59.5526 63.1621 60.261V63.3455C63.1621 64.054 62.7569 64.4092 61.9467 64.4092H50.921C50.0198 64.4092 49.5573 64.0046 49.5336 63.1955L49.0712 41.7028V41.6574C49.0712 40.8779 49.5336 40.4891 50.4585 40.4891H61.9467C62.7569 40.4891 63.1621 40.8443 63.1621 41.5528V46.81C63.1621 47.5185 62.585 47.8737 61.4328 47.8737H56.8795C56.0692 47.8737 55.6641 48.2289 55.6641 48.9374V50.1057C55.6641 50.9148 56.1265 51.3194 57.0514 51.3194H61.0909C61.5593 51.3194 61.7925 51.5187 61.7925 51.9193V54.465C61.7925 54.8143 61.5988 55.0196 61.2095 55.0788L56.3478 55.7833C55.7312 55.8741 55.4229 56.1938 55.4229 56.7424V58.2856C55.4229 58.8954 55.7708 59.1993 56.4664 59.1993H61.9447L61.9467 59.1973Z" fill="#8F1A2B"/>
<path d="M74.666 47.5146C73.9704 47.5146 73.6226 47.7533 73.6226 48.2329C73.6226 48.7124 74.0099 49.0617 74.7866 49.2216L78.0573 49.9103C79.7688 50.2695 81.0079 50.8398 81.7727 51.6173C82.3202 52.1758 82.5949 53.2257 82.5949 54.763V59.5111C82.5949 61.0484 81.921 62.2621 80.5751 63.1501C79.3656 63.9494 77.8479 64.348 76.0218 64.348H66.6739C65.8637 64.348 65.4585 63.9948 65.4585 63.2843V59.2112C65.4585 58.5027 65.8637 58.1475 66.6739 58.1475H74.3083C75.1186 58.1475 75.5237 57.7429 75.5237 56.9338C75.5237 56.2648 75.2154 55.8366 74.5988 55.6451L70.421 54.3861C67.1107 53.3875 65.4565 51.4161 65.4565 48.4697V45.6536C65.4565 44.0571 65.9724 42.8257 67.0059 41.9613C68.0395 41.0969 69.4684 40.6667 71.2945 40.6667H81.9427C82.753 40.6667 83.1581 41.0219 83.1581 41.7304V46.4489C83.1581 47.1574 82.753 47.5126 81.9427 47.5126H74.666V47.5146Z" fill="#8F1A2B"/>
<path d="M106.767 58.5382C106.767 60.1248 106.344 61.4332 105.5 62.4614C104.541 63.6395 103.194 64.2296 101.46 64.2296H91.3083C89.5277 64.2296 88.1186 63.752 87.079 62.7989C86.0395 61.8457 85.5217 60.5906 85.5217 59.0316V45.6279C85.5217 44.0808 86.2115 42.8217 87.5929 41.8547L87.7292 41.7797C89.1107 40.8108 90.6858 40.3273 92.4545 40.3273H99.166C100.98 40.3273 102.64 40.6963 104.148 41.4363L104.423 41.5705C105.986 42.3402 106.769 43.4828 106.769 45.0004V58.5402L106.767 58.5382ZM99.3024 57.2791V48.9966C99.3024 48.3888 98.9545 48.0829 98.2589 48.0829H94.1324C93.4486 48.0829 93.1047 48.3769 93.1047 48.967V49.0578L93.5672 57.6699C93.6008 58.2185 93.915 58.4928 94.5079 58.4928H94.662L98.2905 58.2086C98.9644 58.1593 99.3004 57.8495 99.3004 57.2791H99.3024Z" fill="#8F1A2B"/>
<path d="M121.028 41.014C121.061 40.2562 121.536 39.8754 122.449 39.8754H126.488C127.413 39.8754 127.876 40.2799 127.876 41.089V57.8791C127.876 59.3967 127.334 60.784 126.249 62.043L125.771 62.5976C124.721 63.8053 123.294 64.4092 121.49 64.4092H115.806C114.038 64.4092 112.53 63.8685 111.287 62.7851C110.043 61.7016 109.415 60.3853 109.403 58.8382L109.3 41.091C109.3 40.2819 109.763 39.8773 110.688 39.8773H114.3C115.225 39.8773 115.688 40.2819 115.688 41.091V57.0266C115.688 57.7252 116.059 58.0744 116.8 58.0744H116.903L119.111 57.9837C119.899 57.9541 120.308 57.6048 120.344 56.9358L121.028 41.016V41.014Z" fill="#8F1A2B"/>
<path d="M151.379 66.8346C151.425 66.9135 151.449 67.0043 151.449 67.1049C151.449 67.5134 151.215 67.7187 150.747 67.7187H145.885C145.646 67.7187 145.457 67.6279 145.32 67.4483L136.897 56.2747L136.263 63.164C136.194 63.9534 135.721 64.348 134.842 64.348H131.794C130.87 64.348 130.407 63.9435 130.407 63.1344V41.3574C130.407 40.5483 130.87 40.1438 131.794 40.1438H142.391C144.16 40.1438 145.644 40.6233 146.842 41.5824C148.063 42.5711 148.674 43.8341 148.674 45.3714V49.8788C148.674 51.4161 148.051 52.7442 146.808 53.8631L144.704 55.7498L151.379 66.8326V66.8346ZM141.176 48.9078C141.176 48.2092 140.753 47.7691 139.909 47.5896L138.403 47.26C138.312 47.2403 138.192 47.2304 138.043 47.2304C137.621 47.2304 137.399 47.4455 137.375 47.8737L137.204 51.8285V51.8739C137.204 52.2725 137.427 52.4738 137.872 52.4738C138.077 52.4738 138.253 52.4048 138.403 52.2647L140.287 50.4964C140.879 49.938 141.176 49.4091 141.176 48.9098V48.9078Z" fill="#8F1A2B"/>
<path d="M174.51 62.9706C174.579 63.1798 174.613 63.3692 174.613 63.5389C174.613 64.1171 174.213 64.4072 173.415 64.4072H168.16C167.658 64.4072 167.281 64.1921 167.03 63.7639L165.712 61.4865L159.19 60.6636L157.872 63.5843C157.621 64.1329 157.152 64.4072 156.468 64.4072H152.103C151.407 64.4072 151.059 64.1527 151.059 63.6435C151.059 63.4442 151.111 63.2034 151.213 62.9252L159.295 40.8049C159.512 40.2267 159.962 39.9366 160.646 39.9366H166.536C167.231 39.9366 167.672 40.2365 167.854 40.8345L174.514 62.9706H174.51ZM164.7 56.2155L162.97 51.4378C162.868 51.1477 162.656 51.0036 162.336 51.0036C161.982 51.0036 161.747 51.1674 161.634 51.497L159.99 56.0359C159.957 56.1365 159.939 56.2253 159.939 56.3063C159.939 56.6161 160.166 56.7917 160.623 56.8312L163.498 57.0858C163.601 57.0956 163.704 57.1016 163.806 57.1016C164.423 57.1016 164.731 56.9022 164.731 56.5016C164.731 56.4109 164.719 56.3161 164.698 56.2175L164.7 56.2155Z" fill="#8F1A2B"/>
</g>
<defs>
<clipPath id="clip0_1_93">
<rect width="200" height="354" fill="white"/>
</clipPath>
</defs>
</svg>
