<svg width="338" height="62" viewBox="0 0 338 62" fill="none" xmlns="http://www.w3.org/2000/svg">
<path d="M22.7432 2.5H315.257C326.207 2.50006 335.5 12.3949 335.5 25.1396V36.8604C335.5 49.6051 326.207 59.4999 315.257 59.5H22.7432C11.7929 59.4999 2.5 49.6051 2.5 36.8604V25.1396C2.5 12.3949 11.7929 2.50007 22.7432 2.5Z" fill="white" stroke="#D76BA2" stroke-width="5"/>
<g clip-path="url(#clip0_1_173)">
<rect width="171.238" height="20.51" transform="translate(85.141 21)" fill="white" fill-opacity="0.84"/>
<path d="M86.3606 39.4862C84.9546 38.618 84.7735 37.7712 85.7748 36.4717L85.8493 36.3439C87.053 34.7568 87.4578 34.629 89.3538 35.4225C90.5574 35.9338 91.7291 36.1628 92.7517 36.1628C94.7223 36.1628 96.1283 35.3213 96.1283 33.9153C96.1283 30.6931 85.5671 33.175 85.5671 26.9863C85.5671 22.225 90.1686 21 94.5146 21C95.3347 21 96.1496 21.0533 96.9165 21.1278C98.7327 21.3089 99.1907 21.8415 99.1428 23.6576C99.0895 25.1382 98.8605 25.6016 97.8912 25.6016C97.561 25.6016 95.9738 25.2714 94.5146 25.2714C92.9807 25.2714 91.6759 25.6548 91.6759 26.7786C91.6759 29.3883 102.621 25.6815 102.621 34.2668C102.621 39.124 98.019 41.2703 93.3162 41.2703C90.7864 41.2703 88.23 40.6312 86.3606 39.4808V39.4862Z" fill="#D76BA2"/>
<path d="M120.542 37.5156C121.256 39.4329 120.926 40.072 118.982 40.6365C116.324 41.4035 115.685 41.0466 115.094 39.0761L114.657 37.6168L109.597 37.9736L109.289 39.3264C108.852 41.3449 108.266 41.7283 106.247 41.3449L105.481 41.2171C103.489 40.8336 103.127 40.2211 103.744 38.3038L108.319 23.5777C108.932 21.5858 109.544 21.1757 111.643 21.2237C114.071 21.2982 114.684 21.7616 115.424 23.7268L120.537 37.5049L120.542 37.5156ZM113.587 34.0111L111.77 28.0035L110.311 34.2188L113.581 34.0165L113.587 34.0111Z" fill="#D76BA2"/>
<path d="M135.215 38.1067C135.316 40.1785 134.778 40.6898 132.706 40.8443L125.879 41.3289C123.834 41.4834 123.296 40.9987 123.194 38.9536L122.502 24.1529C122.401 22.1078 122.886 21.4953 124.931 21.4953H125.644C127.689 21.4953 128.201 21.9054 128.174 23.9505L128.046 35.3799L132.573 34.8154C134.592 34.5597 135.055 35.0177 135.156 37.0416L135.21 38.1174L135.215 38.1067Z" fill="#D76BA2"/>
<path d="M153.083 37.5156C153.797 39.4329 153.467 40.072 151.523 40.6365C148.865 41.4035 148.226 41.0466 147.635 39.0761L147.198 37.6168L142.139 37.9736L141.83 39.3264C141.393 41.3449 140.807 41.7283 138.789 41.3449L138.022 41.2171C136.03 40.8336 135.668 40.2211 136.286 38.3038L140.86 23.5777C141.473 21.5858 142.085 21.1757 144.184 21.2237C146.612 21.2982 147.225 21.7616 147.965 23.7268L153.078 37.5049L153.083 37.5156ZM146.128 34.0111L144.312 28.0035L142.852 34.2188L146.122 34.0165L146.128 34.0111Z" fill="#D76BA2"/>
<path d="M175.681 34.3946C176.549 34.2401 176.73 34.368 176.73 35.2627L176.704 40.3756C176.704 41.1958 176.475 41.4248 175.681 41.4727C175.298 41.4993 174.941 41.4993 174.584 41.4993C167.836 41.4993 164.816 36.999 164.816 32.2696C164.816 27.0555 168.47 21.5592 174.813 21.5592C175.042 21.5592 175.298 21.5592 175.527 21.5858C176.065 21.6125 176.192 21.7669 176.24 22.2782L176.469 25.1648C176.65 27.4656 176.395 27.8224 174.169 28.4882C172.07 29.1007 170.946 30.5067 170.946 32.0672C170.946 33.8034 172.789 34.4958 174.525 34.4958C174.935 34.4958 175.319 34.4692 175.676 34.3946H175.681Z" fill="#D76BA2"/>
<path d="M191.962 38.1547C192.932 39.843 192.628 40.4821 190.684 40.7644L190.402 40.8176C188.33 41.1265 187.691 40.7644 186.876 38.847L184.932 34.2721L183.398 34.4745L183.627 38.6926C183.728 40.7377 183.244 41.249 181.199 41.249H180.916C178.871 41.249 178.36 40.7377 178.36 38.6926L178.413 24.2967C178.413 22.3794 178.999 21.7137 180.922 21.5379C181.843 21.4633 182.812 21.3835 183.579 21.3835C190.024 21.3835 193.219 24.5044 193.219 27.7C193.219 29.7984 191.866 31.9181 189.156 33.2229L191.968 38.1547H191.962ZM182.994 26.0862L183.249 30.9168C185.859 30.8902 187.185 29.5853 187.185 28.3071C187.185 27.1567 186.088 26.033 183.862 26.033C183.579 26.033 183.276 26.033 182.994 26.0862Z" fill="#D76BA2"/>
<path d="M200.633 38.8204C200.58 40.8922 200.095 41.4035 198.023 41.4781L197.23 41.5047C195.184 41.5792 194.673 41.0946 194.726 39.0494L195.035 24.2222C195.089 22.1504 195.573 21.6125 197.645 21.6125H198.487C200.532 21.6125 201.043 22.0705 200.99 24.1157L200.633 38.8151V38.8204Z" fill="#D76BA2"/>
<path d="M219.471 37.5156C220.184 39.4329 219.854 40.072 217.91 40.6365C215.252 41.4035 214.613 41.0466 214.022 39.0761L213.585 37.6168L208.526 37.9736L208.217 39.3264C207.78 41.3449 207.194 41.7283 205.176 41.3449L204.409 41.2171C202.417 40.8336 202.055 40.2211 202.673 38.3038L207.248 23.5777C207.86 21.5858 208.473 21.1757 210.571 21.2237C213 21.2982 213.612 21.7616 214.352 23.7268L219.465 37.5049L219.471 37.5156ZM212.52 34.0111L210.704 28.0035L209.245 34.2188L212.515 34.0165L212.52 34.0111Z" fill="#D76BA2"/>
<path d="M223.332 41.1212C222.41 41.068 222.181 40.8123 222.128 39.9176L221.361 24.3713C221.287 22.7096 221.718 22.1983 223.358 22.0439C224.072 21.9693 224.791 21.9427 225.531 21.9427C234.25 21.9427 239.006 26.0596 239.006 31.6837C239.006 36.4398 234.431 41.1691 224.535 41.1691C224.125 41.1691 223.742 41.1425 223.332 41.1159V41.1212ZM233.611 31.508C233.611 29.1326 231.283 27.6201 227.55 27.5722L227.395 35.087C227.704 35.1136 228.008 35.1402 228.29 35.1402C231.486 35.1402 233.605 33.9366 233.605 31.508H233.611Z" fill="#D76BA2"/>
<path d="M256.027 37.5156C256.741 39.4329 256.411 40.072 254.467 40.6365C251.809 41.4035 251.17 41.0466 250.579 39.0761L250.142 37.6168L245.083 37.9736L244.774 39.3264C244.337 41.3449 243.751 41.7283 241.733 41.3449L240.966 41.2171C238.974 40.8336 238.612 40.2211 239.23 38.3038L243.805 23.5777C244.417 21.5858 245.03 21.1757 247.128 21.2237C249.557 21.2982 250.169 21.7616 250.909 23.7268L256.022 37.5049L256.027 37.5156ZM249.077 34.0111L247.261 28.0035L245.802 34.2188L249.072 34.0165L249.077 34.0111Z" fill="#D76BA2"/>
</g>
<defs>
<clipPath id="clip0_1_173">
<rect width="171.238" height="20.51" fill="white" transform="translate(85.141 21)"/>
</clipPath>
</defs>
</svg>
